<svg xmlns="http://www.w3.org/2000/svg" viewBox="0 0 32 32" width="24" height="24" style="border-color: rgba(187,187,187,1);border-width: 0px;border-style: solid" filter="none">
    
    <g>
    <path d="M23.072 7.872c0-0.96 0.032-1.92 0.128-2.88 0.16-1.28 0.672-2.432 1.44-3.488 0.032-0.064 0.064-0.224 0.032-0.288-0.384-0.384-0.768-0.768-1.184-1.216-0.352 0.48-0.672 0.928-0.928 1.408-1.312 2.368-1.44 4.896-1.248 7.488 0.096 1.408 0.224 2.816 0.224 4.224 0.064 1.92-0.48 3.648-1.728 5.152-0.096 0.128-0.192 0.224-0.256 0.32l-6.080-6.080c0.672-0.576 1.408-1.088 2.272-1.408 0.064-0.032 0.224 0 0.288 0.064 1.088 1.088 2.176 2.144 3.264 3.232l1.216 1.216c0.096-0.448 0.16-0.8 0.256-1.184 0.032-0.224-0.032-0.352-0.16-0.512-1.040-1.009-2.031-1.999-3.006-3.005l-0.034-0.035c-0.064-0.064-0.16-0.128-0.224-0.192l0.032-0.128h3.36c-0.064-0.64-0.096-1.216-0.16-1.856h-1.536c-1.408 0-2.784 0.192-4.064 0.736-3.168 1.376-6.144 4.576-6.144 9.44 0 1.824 0.128 3.616 0.192 5.44 0.064 1.568-0.064 3.136-0.736 4.608-0.256 0.64-0.64 1.248-0.96 1.824l1.248 1.248c0.064-0.096 0.16-0.192 0.224-0.288 1.408-1.888 2.016-4.032 2.016-6.368 0-1.568-0.096-3.168-0.16-4.768-0.064-1.632-0.032-3.232 0.544-4.8 0.288-0.832 0.768-1.6 1.28-2.24 2.048 2.016 4.032 4.032 6.048 6.016-0.659 0.563-1.436 1.010-2.287 1.297l-0.049 0.015c-0.096 0.032-0.288 0-0.352-0.096l-3.264-3.264c-0.288-0.288-0.576-0.576-0.928-0.896-0.096 0.448-0.128 0.832-0.224 1.216-0.032 0.224 0.032 0.384 0.192 0.544l2.688 2.688c0.064 0.064 0.128 0.128 0.192 0.224v0.064c-1.024 0.032-2.048 0.064-3.072 0.128 0.032 0.576 0.064 1.152 0.096 1.76h1.376c1.76 0 3.456-0.256 4.992-1.088 3.68-2.048 5.568-5.12 5.472-9.344-0.032-1.664-0.224-3.296-0.288-4.928zM8.096 27.232c0-0.128-0.032-0.32-0.128-0.416l-2.112-2.112c-0.448-0.448-0.928-0.896-1.408-1.376 1.28-0.32 2.528-0.32 3.808-0.288l-0.096-1.792c-2.976-0.128-5.728 0.352-8.16 2.272 0.384 0.384 0.768 0.736 1.12 1.088 0.128 0.16 0.224 0.128 0.416 0.032 0.416-0.288 0.896-0.512 1.344-0.8 0.16-0.096 0.288-0.032 0.416 0.096 1.312 1.312 2.624 2.624 3.904 3.936 0.192 0.16 0.352 0.32 0.576 0.544 0.128-0.448 0.224-0.8 0.32-1.184zM30.752 7.328c-0.544 0.32-1.088 0.608-1.632 0.928-0.192 0.096-0.32 0.064-0.448-0.096-0.896-0.896-1.824-1.792-2.72-2.72-0.544-0.544-1.088-1.12-1.696-1.728-0.128 0.448-0.224 0.8-0.32 1.152-0.064 0.224 0 0.384 0.16 0.544 0.879 0.847 1.713 1.681 2.532 2.531l0.028 0.029c0.256 0.256 0.544 0.48 0.8 0.736 0 0.032-0.032 0.064-0.064 0.096-1.152 0.224-2.336 0.256-3.552 0.16 0.064 0.64 0.128 1.216 0.16 1.824 2.944 0.16 5.664-0.32 8-2.208l-1.248-1.248z" fill="rgba(255,255,255,1)"></path>
    </g>
  </svg>