<svg xmlns="http://www.w3.org/2000/svg" viewBox="0 0 32 32" width="24" height="24" style="border-color: rgba(187,187,187,1);border-width: 0px;border-style: solid" filter="none">
    
    <g>
    <path d="M19.968 17.568c-0.128-0.032-0.224-0.064-0.352-0.096-0.96 0.608-2.112 0.96-3.328 0.96-1.248 0-2.4-0.352-3.392-0.992-2.528 0.576-4.48 2.944-4.544 5.472-0.032 1.344-0.064 2.656-0.064 4 0 1.248-0.096 1.28 0.544 1.472 0 0 8.192 1.888 14.88 0 0.384-0.128 0.576-0.32 0.576-0.768-0.032-1.536 0-3.072-0.032-4.608-0.128-2.592-1.824-4.736-4.288-5.44zM10.176 17.536c0.512-0.384 1.088-0.64 1.696-0.928-1.092-1.061-1.79-2.523-1.856-4.148l-0-0.012h-0.128c-1.216 0-2.432-0.032-3.648 0-1.472 0.032-2.72 0.448-3.712 1.216-0.48 0.352-2.464 2.24-2.528 7.232v2.464c1.795 0.587 3.918 1.059 6.104 1.327l0.168 0.017c0.704 0.096 0.96-0.032 0.96-0.832-0.096-2.592 0.832-4.768 2.944-6.336zM31.936 18.016c-0.096-2.080-1.12-3.648-2.88-4.704-2.016-1.248-4.288-0.832-6.496-0.864-0.072 1.646-0.768 3.116-1.855 4.191l-0.001 0.001c1.024 0.416 1.888 0.96 2.656 1.728 1.504 1.568 2.112 3.488 1.984 5.632-0.032 0.544 0.096 0.8 0.704 0.736 1.824-0.128 3.616-0.48 5.312-1.152 0.448-0.16 0.64-0.384 0.64-0.864-0.032-1.568 0-3.168-0.064-4.704zM16.32 16.992c2.56-0.032 4.64-2.144 4.64-4.704s-2.048-4.64-4.608-4.672c-2.624 0-4.736 2.080-4.768 4.672 0 2.56 2.176 4.736 4.736 4.704zM8.224 12.16c0.096 0 0.32 0 0.544-0.064 0.448-0.096 0.896-0.192 1.248-0.384 0.136-1.983 1.172-3.698 2.699-4.754l0.021-0.014c0-0.096-0.032-0.224-0.032-0.352-0.48-2.336-2.752-4.064-5.024-3.808-2.528 0.32-4.416 2.432-4.288 4.8 0.128 2.592 2.144 4.544 4.832 4.576zM22.56 11.904c0.064 0.032 0.16 0.064 0.224 0.064 2.976 0.832 5.92-1.44 5.888-4.544 0-2.432-1.792-4.352-4.288-4.64-2.208-0.224-4.448 1.44-4.96 3.68 0 0.096-0.032 0.16-0.032 0.224 1.834 1.068 3.070 2.988 3.168 5.203l0 0.013z" fill="rgba(255,255,255,1)"></path>
    </g>
  </svg>